<svg width="85" height="24" viewBox="0 0 85 24" fill="none" xmlns="http://www.w3.org/2000/svg">
<path d="M12.0513 0L23.1025 3.984L21.4175 18.756L12.0513 24L2.68502 18.756L1 3.984L12.0513 0ZM12.0513 2.652L5.14244 18.312H7.71869L9.10781 14.808H14.9709L16.3612 18.312H18.9363L12.0513 2.652ZM14.069 12.648H10.0335L12.0513 7.74L14.069 12.648Z" fill="#3DCFB6"/>
<path d="M28.416 17.5L31.872 7.452H33.392L36.768 17.5H35.456L34.608 14.924H30.608L29.728 17.5H28.416ZM30.928 13.948H34.288L32.608 8.972L30.928 13.948ZM44.2435 17.5V13.004C44.2435 12.2733 44.0675 11.7187 43.7155 11.34C43.3688 10.956 42.8942 10.764 42.2915 10.764C41.8328 10.764 41.4355 10.8893 41.0995 11.14C40.7635 11.3907 40.5048 11.7507 40.3235 12.22C40.1422 12.684 40.0515 13.2387 40.0515 13.884H39.5715C39.5715 12.9933 39.6888 12.2333 39.9235 11.604C40.1582 10.9747 40.4995 10.4947 40.9475 10.164C41.4008 9.828 41.9502 9.66 42.5955 9.66C43.1982 9.66 43.7128 9.796 44.1395 10.068C44.5715 10.3347 44.9022 10.7187 45.1315 11.22C45.3608 11.7213 45.4755 12.316 45.4755 13.004V17.5H44.2435ZM38.8035 17.5V9.852H39.8755L40.0515 11.612V17.5H38.8035ZM51.1638 21.436C50.3798 21.436 49.6998 21.324 49.1238 21.1C48.5478 20.8813 48.0998 20.5853 47.7798 20.212C47.4651 19.844 47.3078 19.436 47.3078 18.988C47.3078 18.396 47.5238 17.9427 47.9558 17.628C48.3931 17.3187 48.9558 17.164 49.6438 17.164L50.3318 17.596C49.7558 17.596 49.3104 17.716 48.9958 17.956C48.6811 18.196 48.5238 18.524 48.5238 18.94C48.5238 19.356 48.7478 19.708 49.1957 19.996C49.6438 20.284 50.2998 20.428 51.1638 20.428C51.8038 20.428 52.3638 20.3347 52.8438 20.148C53.3291 19.9667 53.7051 19.7267 53.9718 19.428C54.2438 19.1347 54.3798 18.8173 54.3798 18.476C54.3798 18.236 54.2918 18.028 54.1158 17.852C53.9398 17.6813 53.6704 17.596 53.3078 17.596H50.3318C49.8144 17.596 49.3664 17.5187 48.9878 17.364C48.6144 17.204 48.3264 16.996 48.1238 16.74C47.9211 16.484 47.8198 16.204 47.8198 15.9C47.8198 15.58 47.9104 15.308 48.0918 15.084C48.2731 14.86 48.5078 14.6893 48.7958 14.572C49.0891 14.4547 49.4038 14.396 49.7398 14.396L49.9798 14.86C49.8198 14.86 49.6571 14.8973 49.4918 14.972C49.3318 15.0413 49.1958 15.148 49.0838 15.292C48.9771 15.4307 48.9238 15.6067 48.9238 15.82C48.9238 16.0653 49.0251 16.2707 49.2278 16.436C49.4304 16.6013 49.7984 16.684 50.3318 16.684H53.3078C54.0278 16.684 54.5931 16.836 55.0038 17.14C55.4198 17.444 55.6278 17.868 55.6278 18.412C55.6278 18.9133 55.4491 19.3933 55.0918 19.852C54.7344 20.316 54.2224 20.6947 53.5558 20.988C52.8891 21.2867 52.0918 21.436 51.1638 21.436ZM51.3878 15.26C50.8011 15.26 50.2704 15.1427 49.7958 14.908C49.3264 14.6733 48.9531 14.3453 48.6758 13.924C48.4038 13.5027 48.2678 13.0147 48.2678 12.46C48.2678 11.9 48.4038 11.4093 48.6758 10.988C48.9531 10.5667 49.3264 10.2413 49.7958 10.012C50.2704 9.77733 50.8011 9.66 51.3878 9.66C51.9584 9.66 52.4758 9.77733 52.9398 10.012C53.4091 10.2413 53.7824 10.5667 54.0598 10.988C54.3371 11.4093 54.4758 11.9 54.4758 12.46C54.4758 13.0147 54.3371 13.5027 54.0598 13.924C53.7824 14.3453 53.4091 14.6733 52.9398 14.908C52.4758 15.1427 51.9584 15.26 51.3878 15.26ZM51.3878 14.364C51.9744 14.364 52.4304 14.1827 52.7558 13.82C53.0811 13.4573 53.2438 13.004 53.2438 12.46C53.2438 11.9 53.0811 11.4467 52.7558 11.1C52.4304 10.748 51.9744 10.572 51.3878 10.572C50.8064 10.572 50.3478 10.748 50.0118 11.1C49.6811 11.4467 49.5158 11.9 49.5158 12.46C49.5158 13.004 49.6811 13.4573 50.0118 13.82C50.3478 14.1827 50.8064 14.364 51.3878 14.364ZM53.8998 10.876L53.3078 10.636C53.3078 10.188 53.3958 9.796 53.5718 9.46C53.7478 9.11867 53.9984 8.85467 54.3238 8.668C54.6491 8.476 55.0358 8.38 55.4838 8.38L55.3878 9.612C54.9078 9.612 54.5398 9.716 54.2838 9.924C54.0278 10.1267 53.8998 10.444 53.8998 10.876ZM62.691 9.836H63.939V17.5H62.691V9.836ZM57.267 9.836H58.515V14.604C58.515 15.244 58.6697 15.7293 58.979 16.06C59.2937 16.3907 59.7417 16.556 60.323 16.556C60.803 16.556 61.219 16.428 61.571 16.172C61.9283 15.916 62.203 15.564 62.395 15.116C62.5923 14.6627 62.691 14.1453 62.691 13.564H63.155C63.155 14.4227 63.0297 15.156 62.779 15.764C62.5337 16.372 62.1843 16.8387 61.731 17.164C61.283 17.484 60.755 17.644 60.147 17.644C59.571 17.644 59.067 17.5373 58.635 17.324C58.203 17.1107 57.867 16.788 57.627 16.356C57.387 15.9187 57.267 15.3667 57.267 14.7V9.836ZM67.1785 17.5V6.588H68.4265V17.5H67.1785ZM76.3989 17.5L76.2389 15.82V12.54C76.2389 11.852 76.0922 11.3587 75.7989 11.06C75.5055 10.756 75.0655 10.604 74.4789 10.604C74.1482 10.604 73.8469 10.652 73.5749 10.748C73.3082 10.844 73.0949 10.9933 72.9349 11.196C72.7802 11.3933 72.7029 11.6493 72.7029 11.964H71.3109C71.3109 11.4093 71.4469 10.964 71.7189 10.628C71.9909 10.2867 72.3642 10.0413 72.8389 9.892C73.3189 9.73733 73.8655 9.66 74.4789 9.66C75.0655 9.66 75.5855 9.75867 76.0389 9.956C76.4922 10.1533 76.8469 10.468 77.1029 10.9C77.3589 11.3267 77.4869 11.884 77.4869 12.572V17.5H76.3989ZM73.7909 17.692C73.1615 17.692 72.6415 17.58 72.2309 17.356C71.8202 17.132 71.5135 16.8413 71.3109 16.484C71.1082 16.1267 71.0069 15.7507 71.0069 15.356C71.0069 14.8387 71.1349 14.4173 71.3909 14.092C71.6522 13.7667 72.0069 13.5293 72.4549 13.38C72.9029 13.2253 73.4069 13.148 73.9669 13.148C74.3669 13.148 74.7669 13.188 75.1669 13.268C75.5722 13.348 75.9669 13.4573 76.3509 13.596V14.38C76.0309 14.252 75.6682 14.1507 75.2629 14.076C74.8629 14.0013 74.4949 13.964 74.1589 13.964C73.6469 13.964 73.2149 14.0707 72.8629 14.284C72.5109 14.492 72.3349 14.8493 72.3349 15.356C72.3349 15.7293 72.4682 16.0493 72.7349 16.316C73.0069 16.5827 73.4389 16.716 74.0309 16.716C74.4469 16.716 74.8202 16.62 75.1509 16.428C75.4869 16.2307 75.7509 15.9853 75.9429 15.692C76.1402 15.3987 76.2389 15.1053 76.2389 14.812H76.5429C76.5429 15.324 76.4309 15.7987 76.2069 16.236C75.9882 16.6733 75.6735 17.0253 75.2629 17.292C74.8522 17.5587 74.3615 17.692 73.7909 17.692ZM80.4754 17.5V9.836H81.7234V17.5H80.4754ZM81.3394 14.044C81.3394 13.0733 81.4327 12.268 81.6194 11.628C81.806 10.9827 82.078 10.5027 82.4354 10.188C82.798 9.868 83.238 9.708 83.7554 9.708C83.926 9.708 84.0807 9.72133 84.2194 9.748C84.3634 9.76933 84.5074 9.804 84.6514 9.852L84.5714 11.084C84.422 11.036 84.2594 10.996 84.0834 10.964C83.9074 10.9267 83.75 10.908 83.6114 10.908C83.158 10.908 82.7927 11.0387 82.5154 11.3C82.238 11.556 82.0354 11.9187 81.9074 12.388C81.7847 12.8573 81.7234 13.4093 81.7234 14.044H81.3394Z" fill="white"/>
</svg>
