<svg width="58" height="24" viewBox="0 0 58 24" fill="none" xmlns="http://www.w3.org/2000/svg">
<path d="M2.00185 0.00422903C2.00185 0.0972677 1.99769 0.160703 2.00185 0.224138C2.16002 1.98341 2.31818 3.74269 2.47219 5.5062C2.68863 8.00132 2.90091 10.4964 3.11735 12.9873C3.36292 15.787 3.61266 18.5824 3.84991 21.382C3.86656 21.585 3.93732 21.6738 4.12462 21.7245C6.7885 22.4688 9.44405 23.2174 12.1079 23.9574C12.2869 24.0082 12.5033 24.0167 12.6823 23.9659C15.3545 23.2216 18.0226 22.4646 20.6947 21.7161C20.8987 21.6569 20.9695 21.5638 20.9861 21.3524C21.0694 20.2951 21.1693 19.2336 21.2608 18.1764C21.4148 16.4255 21.5647 14.6747 21.7187 12.9239C21.8977 10.8686 22.0808 8.81752 22.2598 6.76222C22.393 5.23131 22.5345 3.70463 22.6677 2.17372C22.7301 1.45479 22.7842 0.735851 22.8425 0H2.00185V0.00422903ZM18.8217 6.11095C18.6844 7.65877 18.547 9.21082 18.4096 10.7586C18.2515 12.5391 18.0933 14.3195 17.9351 16.0957C17.8894 16.6074 17.8228 17.1191 17.8103 17.635C17.8019 17.9099 17.6854 17.9818 17.4606 18.0453C15.854 18.4851 14.2515 18.9376 12.649 19.3859C12.5783 19.407 12.5117 19.4324 12.4409 19.4535C12.4159 19.4408 12.391 19.4324 12.3618 19.4197C10.647 18.946 8.93208 18.4682 7.21722 17.9861C7.14646 17.9649 7.05488 17.8507 7.04656 17.7704C6.92585 16.4509 6.81763 15.1315 6.70109 13.7866H9.31918C9.36496 14.3153 9.41491 14.8523 9.45653 15.3937C9.494 15.8927 9.48983 15.8927 9.95185 16.0196C10.7801 16.2437 11.6126 16.4636 12.4409 16.6835L12.4326 16.6624C13.34 16.4171 14.2473 16.176 15.1547 15.9138C15.238 15.8885 15.3337 15.7531 15.3462 15.6601C15.4003 15.2541 15.4294 14.8439 15.4627 14.4379C15.5168 13.7824 15.571 13.1269 15.6292 12.4418H12.4326L12.4409 12.4249C12.4201 12.4249 12.3951 12.4249 12.3743 12.4249H6.58038C6.5013 11.5495 6.42638 10.6825 6.34729 9.7902H12.3785C12.3993 9.7902 12.4243 9.7902 12.4451 9.7902L12.4367 9.77328H15.8623C15.9414 8.86404 16.0205 7.97595 16.0996 7.07094H12.4326L12.4409 7.05402C12.4201 7.05402 12.3951 7.05402 12.3743 7.05402C10.3223 7.05825 8.27028 7.05825 6.21826 7.06248C6.18913 7.06248 6.15999 7.04979 6.10588 7.03287C6.03096 6.17015 5.95187 5.30743 5.87695 4.41933H12.3743C12.3951 4.41933 12.4201 4.41933 12.4409 4.41933L12.4326 4.40242H18.9591C18.9133 4.99448 18.8675 5.55271 18.8217 6.11095Z" fill="#3DCFB6"/>
<path d="M33.104 17.692C32.2187 17.692 31.456 17.4707 30.816 17.028C30.176 16.58 29.6827 15.9613 29.336 15.172C28.9893 14.3773 28.816 13.4573 28.816 12.412C28.816 11.2973 29.0027 10.3587 29.376 9.596C29.7547 8.83333 30.2667 8.25733 30.912 7.868C31.5627 7.47333 32.2933 7.276 33.104 7.276C34.176 7.276 35.0373 7.54533 35.688 8.084C36.344 8.61733 36.7947 9.31333 37.04 10.172L35.696 10.444C35.488 9.82 35.1547 9.324 34.696 8.956C34.2427 8.58267 33.712 8.396 33.104 8.396C32.576 8.396 32.088 8.548 31.64 8.852C31.1973 9.15067 30.84 9.59867 30.568 10.196C30.296 10.7933 30.16 11.532 30.16 12.412C30.16 13.212 30.2667 13.924 30.48 14.548C30.6987 15.172 31.024 15.6627 31.456 16.02C31.8933 16.3773 32.4427 16.556 33.104 16.556C33.8987 16.556 34.528 16.3427 34.992 15.916C35.4613 15.4893 35.696 14.9293 35.696 14.236H37.056C37.056 14.956 36.8907 15.5747 36.56 16.092C36.2293 16.604 35.7653 16.9987 35.168 17.276C34.576 17.5533 33.888 17.692 33.104 17.692ZM42.6445 17.692C41.9725 17.692 41.3565 17.572 40.7965 17.332C40.2365 17.0867 39.7858 16.7267 39.4445 16.252C39.1032 15.7773 38.9272 15.1907 38.9165 14.492H40.1325C40.1325 14.9613 40.2472 15.348 40.4765 15.652C40.7058 15.9507 41.0098 16.1747 41.3885 16.324C41.7672 16.468 42.1805 16.54 42.6285 16.54C43.1138 16.54 43.5352 16.4627 43.8925 16.308C44.2498 16.1533 44.5245 15.9507 44.7165 15.7C44.9138 15.444 45.0125 15.164 45.0125 14.86C45.0125 14.4333 44.8818 14.0893 44.6205 13.828C44.3592 13.5613 43.9725 13.3453 43.4605 13.18L41.6845 12.556C40.8525 12.2573 40.2232 11.916 39.7965 11.532C39.3698 11.148 39.1565 10.6093 39.1565 9.916C39.1565 9.13733 39.4552 8.50267 40.0525 8.012C40.6552 7.52133 41.5085 7.276 42.6125 7.276C43.6365 7.276 44.4365 7.51333 45.0125 7.988C45.5885 8.45733 45.9192 9.08933 46.0045 9.884H44.7725C44.6925 9.42 44.4738 9.06 44.1165 8.804C43.7645 8.54267 43.2632 8.412 42.6125 8.412C41.9512 8.412 41.4365 8.55867 41.0685 8.852C40.7005 9.14533 40.5165 9.516 40.5165 9.964C40.5165 10.332 40.6312 10.6253 40.8605 10.844C41.0952 11.0573 41.4605 11.2493 41.9565 11.42L44.0365 12.14C44.7565 12.38 45.3245 12.716 45.7405 13.148C46.1618 13.58 46.3725 14.14 46.3725 14.828C46.3725 15.3613 46.2285 15.844 45.9405 16.276C45.6578 16.708 45.2392 17.052 44.6845 17.308C44.1298 17.564 43.4498 17.692 42.6445 17.692ZM52.3164 17.692C51.6444 17.692 51.0284 17.572 50.4684 17.332C49.9084 17.0867 49.4577 16.7267 49.1164 16.252C48.775 15.7773 48.599 15.1907 48.5884 14.492H49.8044C49.8044 14.9613 49.919 15.348 50.1484 15.652C50.3777 15.9507 50.6817 16.1747 51.0604 16.324C51.439 16.468 51.8524 16.54 52.3004 16.54C52.7857 16.54 53.207 16.4627 53.5644 16.308C53.9217 16.1533 54.1964 15.9507 54.3884 15.7C54.5857 15.444 54.6844 15.164 54.6844 14.86C54.6844 14.4333 54.5537 14.0893 54.2924 13.828C54.031 13.5613 53.6444 13.3453 53.1324 13.18L51.3564 12.556C50.5244 12.2573 49.895 11.916 49.4684 11.532C49.0417 11.148 48.8284 10.6093 48.8284 9.916C48.8284 9.13733 49.127 8.50267 49.7244 8.012C50.327 7.52133 51.1804 7.276 52.2844 7.276C53.3084 7.276 54.1084 7.51333 54.6844 7.988C55.2604 8.45733 55.591 9.08933 55.6764 9.884H54.4444C54.3644 9.42 54.1457 9.06 53.7884 8.804C53.4364 8.54267 52.935 8.412 52.2844 8.412C51.623 8.412 51.1084 8.55867 50.7404 8.852C50.3724 9.14533 50.1884 9.516 50.1884 9.964C50.1884 10.332 50.303 10.6253 50.5324 10.844C50.767 11.0573 51.1324 11.2493 51.6284 11.42L53.7084 12.14C54.4284 12.38 54.9964 12.716 55.4124 13.148C55.8337 13.58 56.0444 14.14 56.0444 14.828C56.0444 15.3613 55.9004 15.844 55.6124 16.276C55.3297 16.708 54.911 17.052 54.3564 17.308C53.8017 17.564 53.1217 17.692 52.3164 17.692Z" fill="white"/>
</svg>
