<svg width="91" height="24" viewBox="0 0 91 24" fill="none" xmlns="http://www.w3.org/2000/svg">
<path d="M3 19.3376L5.95682 0.460691C6.00231 0.187771 6.27525 -0.0396618 6.54818 0.00582481C6.73014 0.0513114 6.86661 0.142285 6.95759 0.278744L10.0054 6.01005L11.2336 3.69024C11.3701 3.41732 11.6885 3.32634 11.9614 3.4628C12.0524 3.50829 12.1434 3.59926 12.1889 3.69024L20.4225 19.3831H3V19.3376Z" fill="#3DCFB6" fill-opacity="0.5"/>
<path d="M13.1897 12.0142L10.0054 6.01001L3 19.3376L13.1897 12.0142Z" fill="#3DCFB6" fill-opacity="0.5"/>
<path d="M20.4225 19.3376L18.148 5.32775C18.1025 5.00934 17.8296 4.8274 17.5112 4.87288C17.4202 4.87288 17.2837 4.96386 17.1927 5.00934L3 19.3376L10.9152 23.7953C11.4156 24.0682 12.0069 24.0682 12.5073 23.7953L20.4225 19.3376Z" fill="#3DCFB6"/>
<path d="M29.616 17.5V7.452H35.728V8.524H30.864V11.868H35.392V12.94H30.864V17.5H29.616ZM38.7106 8.044C38.4546 8.044 38.252 7.972 38.1026 7.828C37.9533 7.67867 37.8786 7.484 37.8786 7.244C37.8786 7.00933 37.9533 6.82267 38.1026 6.684C38.252 6.54533 38.4546 6.476 38.7106 6.476C38.9666 6.476 39.1693 6.54533 39.3186 6.684C39.468 6.82267 39.5426 7.00933 39.5426 7.244C39.5426 7.484 39.468 7.67867 39.3186 7.828C39.1693 7.972 38.9666 8.044 38.7106 8.044ZM38.0866 17.5V9.836H39.3346V17.5H38.0866ZM42.7723 17.5V9.836H44.0203V17.5H42.7723ZM43.6363 14.044C43.6363 13.0733 43.7296 12.268 43.9163 11.628C44.1029 10.9827 44.3749 10.5027 44.7323 10.188C45.0949 9.868 45.5349 9.708 46.0523 9.708C46.2229 9.708 46.3776 9.72133 46.5163 9.748C46.6603 9.76933 46.8043 9.804 46.9483 9.852L46.8683 11.084C46.7189 11.036 46.5563 10.996 46.3803 10.964C46.2043 10.9267 46.0469 10.908 45.9083 10.908C45.4549 10.908 45.0896 11.0387 44.8123 11.3C44.5349 11.556 44.3323 11.9187 44.2043 12.388C44.0816 12.8573 44.0203 13.4093 44.0203 14.044H43.6363ZM51.2095 17.692C50.5482 17.692 49.9562 17.524 49.4335 17.188C48.9162 16.8467 48.5055 16.3747 48.2015 15.772C47.9028 15.1693 47.7535 14.476 47.7535 13.692C47.7535 12.8547 47.9028 12.1347 48.2015 11.532C48.5002 10.9293 48.9082 10.468 49.4255 10.148C49.9482 9.82267 50.5428 9.66 51.2095 9.66C51.7908 9.66 52.2868 9.77733 52.6975 10.012C53.1082 10.2467 53.4388 10.564 53.6895 10.964C53.9402 11.364 54.1135 11.8173 54.2095 12.324C54.3108 12.8253 54.3402 13.3453 54.2975 13.884H48.7615V13.116H53.4735L53.1055 13.356C53.1215 13.0413 53.1028 12.7267 53.0495 12.412C53.0015 12.0973 52.9082 11.8093 52.7695 11.548C52.6308 11.2813 52.4362 11.068 52.1855 10.908C51.9348 10.748 51.6148 10.668 51.2255 10.668C50.7348 10.668 50.3242 10.7933 49.9935 11.044C49.6628 11.2947 49.4148 11.6253 49.2495 12.036C49.0842 12.4413 49.0015 12.8813 49.0015 13.356V13.868C49.0015 14.4013 49.0815 14.8787 49.2415 15.3C49.4068 15.7213 49.6522 16.0547 49.9775 16.3C50.3028 16.5453 50.7135 16.668 51.2095 16.668C51.7055 16.668 52.1135 16.548 52.4335 16.308C52.7535 16.068 52.9482 15.7133 53.0175 15.244H54.3135C54.2335 15.7507 54.0522 16.188 53.7695 16.556C53.4868 16.9187 53.1268 17.1987 52.6895 17.396C52.2522 17.5933 51.7588 17.692 51.2095 17.692ZM60.2763 17.692C59.7643 17.692 59.3003 17.5587 58.8843 17.292C58.4736 17.0253 58.1456 16.636 57.9003 16.124C57.6603 15.6067 57.5403 14.9773 57.5403 14.236H58.0203C58.0203 14.732 58.1216 15.156 58.3243 15.508C58.5323 15.8547 58.7989 16.1187 59.1243 16.3C59.4496 16.4813 59.7909 16.572 60.1483 16.572C60.5589 16.572 60.9349 16.4547 61.2763 16.22C61.6176 15.9853 61.8896 15.6493 62.0923 15.212C62.3003 14.7747 62.4043 14.252 62.4043 13.644C62.4043 13.0467 62.3029 12.5347 62.1003 12.108C61.8976 11.676 61.6229 11.3453 61.2763 11.116C60.9349 10.8813 60.5536 10.764 60.1323 10.764C59.7696 10.764 59.4256 10.8547 59.1003 11.036C58.7803 11.212 58.5189 11.4733 58.3163 11.82C58.1189 12.1667 58.0203 12.5933 58.0203 13.1H57.5403C57.5403 12.3747 57.6576 11.756 57.8923 11.244C58.1323 10.732 58.4629 10.34 58.8843 10.068C59.3056 9.796 59.7963 9.66 60.3563 9.66C60.9589 9.66 61.5109 9.82267 62.0123 10.148C62.5189 10.468 62.9243 10.9267 63.2283 11.524C63.5323 12.1213 63.6843 12.828 63.6843 13.644C63.6843 14.4653 63.5296 15.18 63.2203 15.788C62.9109 16.3907 62.4976 16.86 61.9803 17.196C61.4629 17.5267 60.8949 17.692 60.2763 17.692ZM56.7723 17.5V6.588H58.0203V15.708L57.6523 17.5H56.7723ZM70.9926 17.5L70.8326 15.82V12.54C70.8326 11.852 70.686 11.3587 70.3926 11.06C70.0993 10.756 69.6593 10.604 69.0726 10.604C68.742 10.604 68.4406 10.652 68.1686 10.748C67.902 10.844 67.6886 10.9933 67.5286 11.196C67.374 11.3933 67.2966 11.6493 67.2966 11.964H65.9046C65.9046 11.4093 66.0406 10.964 66.3126 10.628C66.5846 10.2867 66.958 10.0413 67.4326 9.892C67.9126 9.73733 68.4593 9.66 69.0726 9.66C69.6593 9.66 70.1793 9.75867 70.6326 9.956C71.086 10.1533 71.4406 10.468 71.6966 10.9C71.9526 11.3267 72.0806 11.884 72.0806 12.572V17.5H70.9926ZM68.3846 17.692C67.7553 17.692 67.2353 17.58 66.8246 17.356C66.414 17.132 66.1073 16.8413 65.9046 16.484C65.702 16.1267 65.6006 15.7507 65.6006 15.356C65.6006 14.8387 65.7286 14.4173 65.9846 14.092C66.246 13.7667 66.6006 13.5293 67.0486 13.38C67.4966 13.2253 68.0006 13.148 68.5606 13.148C68.9606 13.148 69.3606 13.188 69.7606 13.268C70.166 13.348 70.5606 13.4573 70.9446 13.596V14.38C70.6246 14.252 70.262 14.1507 69.8566 14.076C69.4566 14.0013 69.0886 13.964 68.7526 13.964C68.2406 13.964 67.8086 14.0707 67.4566 14.284C67.1046 14.492 66.9286 14.8493 66.9286 15.356C66.9286 15.7293 67.062 16.0493 67.3286 16.316C67.6006 16.5827 68.0326 16.716 68.6246 16.716C69.0406 16.716 69.414 16.62 69.7446 16.428C70.0806 16.2307 70.3446 15.9853 70.5366 15.692C70.734 15.3987 70.8326 15.1053 70.8326 14.812H71.1366C71.1366 15.324 71.0246 15.7987 70.8006 16.236C70.582 16.6733 70.2673 17.0253 69.8566 17.292C69.446 17.5587 68.9553 17.692 68.3846 17.692ZM77.8211 17.692C77.0798 17.692 76.4611 17.588 75.9651 17.38C75.4691 17.1667 75.0931 16.876 74.8371 16.508C74.5811 16.1347 74.4451 15.708 74.4291 15.228H75.6291C75.6558 15.7133 75.8505 16.0787 76.2131 16.324C76.5811 16.564 77.0798 16.684 77.7091 16.684C78.0398 16.684 78.3438 16.6307 78.6211 16.524C78.8985 16.4173 79.1198 16.2707 79.2851 16.084C79.4505 15.8973 79.5331 15.6867 79.5331 15.452C79.5331 15.1533 79.4238 14.9187 79.2051 14.748C78.9865 14.5773 78.6371 14.428 78.1571 14.3L76.6691 13.82C76.0238 13.6173 75.5278 13.34 75.1811 12.988C74.8398 12.6307 74.6691 12.204 74.6691 11.708C74.6691 11.0893 74.9411 10.5933 75.4851 10.22C76.0291 9.84667 76.7438 9.66 77.6291 9.66C78.5678 9.66 79.2958 9.852 79.8131 10.236C80.3305 10.62 80.5998 11.1 80.6211 11.676H79.3891C79.3411 11.34 79.1705 11.0867 78.8771 10.916C78.5838 10.74 78.1678 10.652 77.6291 10.652C77.1118 10.652 76.7065 10.7693 76.4131 11.004C76.1251 11.2333 75.9811 11.4893 75.9811 11.772C75.9811 12.3 76.4345 12.6893 77.3411 12.94L78.8611 13.452C79.5171 13.6493 80.0185 13.908 80.3651 14.228C80.7171 14.548 80.8931 14.956 80.8931 15.452C80.8931 15.836 80.7678 16.1987 80.5171 16.54C80.2665 16.8813 79.9118 17.1587 79.4531 17.372C78.9945 17.5853 78.4505 17.692 77.8211 17.692ZM86.1314 17.692C85.47 17.692 84.878 17.524 84.3554 17.188C83.838 16.8467 83.4274 16.3747 83.1234 15.772C82.8247 15.1693 82.6754 14.476 82.6754 13.692C82.6754 12.8547 82.8247 12.1347 83.1234 11.532C83.422 10.9293 83.83 10.468 84.3474 10.148C84.87 9.82267 85.4647 9.66 86.1314 9.66C86.7127 9.66 87.2087 9.77733 87.6194 10.012C88.03 10.2467 88.3607 10.564 88.6114 10.964C88.862 11.364 89.0354 11.8173 89.1314 12.324C89.2327 12.8253 89.262 13.3453 89.2194 13.884H83.6834V13.116H88.3954L88.0274 13.356C88.0434 13.0413 88.0247 12.7267 87.9714 12.412C87.9234 12.0973 87.83 11.8093 87.6914 11.548C87.5527 11.2813 87.358 11.068 87.1074 10.908C86.8567 10.748 86.5367 10.668 86.1474 10.668C85.6567 10.668 85.246 10.7933 84.9154 11.044C84.5847 11.2947 84.3367 11.6253 84.1714 12.036C84.006 12.4413 83.9234 12.8813 83.9234 13.356V13.868C83.9234 14.4013 84.0034 14.8787 84.1634 15.3C84.3287 15.7213 84.574 16.0547 84.8994 16.3C85.2247 16.5453 85.6354 16.668 86.1314 16.668C86.6274 16.668 87.0354 16.548 87.3554 16.308C87.6754 16.068 87.87 15.7133 87.9394 15.244H89.2354C89.1554 15.7507 88.974 16.188 88.6914 16.556C88.4087 16.9187 88.0487 17.1987 87.6114 17.396C87.174 17.5933 86.6807 17.692 86.1314 17.692Z" fill="white"/>
</svg>
