<svg width="68" height="24" viewBox="0 0 68 24" fill="none" xmlns="http://www.w3.org/2000/svg">
<path d="M11.9999 19.4136L17.5112 17.9064L18.2544 9.7728H8.45219L8.20883 7.068H18.4989L18.7697 4.4148H5.23012L5.98881 12.4284H15.3174L15.0061 15.8676L11.9999 16.668L8.99377 15.8676L8.80529 13.6548H6.09737L6.48984 17.9076L11.9999 19.4136ZM1.26367 0H22.7362L20.8001 21.6L11.9999 24L3.19978 21.6L1.26367 0Z" fill="#3DCFB6"/>
<path d="M29.616 7.452H30.864V11.884H35.84V7.452H37.072V17.5H35.84V12.956H30.864V17.5H29.616V7.452ZM38.7991 8.524V7.452H46.6231V8.524H43.0471L43.3271 8.236V17.5H42.0791V8.236L42.3591 8.524H38.7991ZM48.3348 7.452H50.1268L53.5828 14.396H53.4548L56.9108 7.452H58.6548V17.5H57.3908V8.748H57.6148L53.9348 16.236H53.1028L49.4388 8.796H49.5828V17.5H48.3348V7.452ZM63.1296 7.452V16.412H67.6096V17.5H61.8816V7.452H63.1296Z" fill="white"/>
</svg>
