<svg width="104" height="24" viewBox="0 0 104 24" fill="none" xmlns="http://www.w3.org/2000/svg">
<path d="M0 0C8.0054 0 15.9946 0 24 0C24 8.0054 24 16.0108 24 24C16.0108 24 8.0054 24 0 24C0 15.9784 0 7.9892 0 0ZM21.472 12.7049C20.9858 11.8298 20.3214 11.2302 19.3653 11.0196C18.6847 10.8575 18.0041 10.8575 17.3234 11.0034C15.1195 11.4571 14.1796 14.1148 15.6057 15.8812C16.108 16.497 16.7725 16.8697 17.4693 17.1938C18.0851 17.4855 18.7171 17.761 19.3329 18.0689C19.7542 18.2795 19.9325 18.6685 19.8839 19.1384C19.8352 19.6084 19.5111 19.8677 19.106 20.0135C18.1985 20.3376 17.1452 20.0459 16.5294 19.2843C16.3997 19.1222 16.2701 18.944 16.1404 18.7657C15.5246 19.1222 14.9251 19.4625 14.3255 19.819C14.6982 20.5483 15.2167 21.1317 15.9298 21.5206C17.1452 22.185 18.4254 22.2822 19.738 21.9581C20.5969 21.7475 21.3261 21.3099 21.7799 20.5159C22.6226 19.0088 22.1364 17.129 20.6455 16.2053C19.9811 15.8001 19.2357 15.5246 18.5388 15.1681C18.1985 14.9899 17.842 14.8278 17.5503 14.6009C17.0317 14.1796 17.129 13.3369 17.7124 13.0128C18.2795 12.6887 19.0736 12.8832 19.5111 13.4504C19.6084 13.5638 19.6732 13.6934 19.7704 13.8231C20.3214 13.4504 20.8886 13.0777 21.472 12.7049ZM6.32005 20.0621C6.64416 20.7589 7.11411 21.3099 7.77853 21.6664C8.63741 22.1364 9.57731 22.2174 10.5334 22.0716C11.3923 21.9419 12.1053 21.553 12.5753 20.7752C12.9642 20.1269 13.0777 19.4139 13.0777 18.6523C13.0777 16.1891 13.0777 13.7259 13.0777 11.2627C13.0777 11.1978 13.0777 11.1168 13.0777 11.0358C12.316 11.0358 11.5868 11.0358 10.8251 11.0358C10.8251 11.133 10.8251 11.214 10.8251 11.3113C10.8251 13.7421 10.8251 16.1567 10.8251 18.5874C10.8251 18.8143 10.8089 19.0574 10.7765 19.2843C10.7117 19.657 10.5172 19.9325 10.1445 20.0459C9.44767 20.2566 8.88049 20.0459 8.47536 19.4463C8.37812 19.2843 8.28089 19.1222 8.16745 18.9602C7.53545 19.3329 6.93585 19.6894 6.32005 20.0621Z" fill="#3DCFB6"/>
<path d="M28.128 17.004V15.708C28.5067 15.9533 28.8853 16.1427 29.264 16.276C29.6427 16.4093 30.0107 16.476 30.368 16.476C30.928 16.476 31.3253 16.3107 31.56 15.98C31.8 15.6493 31.92 15.1853 31.92 14.588V7.452H33.168V14.588C33.168 15.3187 33.056 15.9133 32.832 16.372C32.6133 16.8253 32.2987 17.1587 31.888 17.372C31.4827 17.5853 31.0027 17.692 30.448 17.692C30.016 17.692 29.608 17.628 29.224 17.5C28.8453 17.3667 28.48 17.2013 28.128 17.004ZM40.8051 17.5L40.6451 15.82V12.54C40.6451 11.852 40.4985 11.3587 40.2051 11.06C39.9118 10.756 39.4718 10.604 38.8851 10.604C38.5545 10.604 38.2531 10.652 37.9811 10.748C37.7145 10.844 37.5011 10.9933 37.3411 11.196C37.1865 11.3933 37.1091 11.6493 37.1091 11.964H35.7171C35.7171 11.4093 35.8531 10.964 36.1251 10.628C36.3971 10.2867 36.7705 10.0413 37.2451 9.892C37.7251 9.73733 38.2718 9.66 38.8851 9.66C39.4718 9.66 39.9918 9.75867 40.4451 9.956C40.8985 10.1533 41.2531 10.468 41.5091 10.9C41.7651 11.3267 41.8931 11.884 41.8931 12.572V17.5H40.8051ZM38.1971 17.692C37.5678 17.692 37.0478 17.58 36.6371 17.356C36.2265 17.132 35.9198 16.8413 35.7171 16.484C35.5145 16.1267 35.4131 15.7507 35.4131 15.356C35.4131 14.8387 35.5411 14.4173 35.7971 14.092C36.0585 13.7667 36.4131 13.5293 36.8611 13.38C37.3091 13.2253 37.8131 13.148 38.3731 13.148C38.7731 13.148 39.1731 13.188 39.5731 13.268C39.9785 13.348 40.3731 13.4573 40.7571 13.596V14.38C40.4371 14.252 40.0745 14.1507 39.6691 14.076C39.2691 14.0013 38.9011 13.964 38.5651 13.964C38.0531 13.964 37.6211 14.0707 37.2691 14.284C36.9171 14.492 36.7411 14.8493 36.7411 15.356C36.7411 15.7293 36.8745 16.0493 37.1411 16.316C37.4131 16.5827 37.8451 16.716 38.4371 16.716C38.8531 16.716 39.2265 16.62 39.5571 16.428C39.8931 16.2307 40.1571 15.9853 40.3491 15.692C40.5465 15.3987 40.6451 15.1053 40.6451 14.812H40.9491C40.9491 15.324 40.8371 15.7987 40.6131 16.236C40.3945 16.6733 40.0798 17.0253 39.6691 17.292C39.2585 17.5587 38.7678 17.692 38.1971 17.692ZM43.5536 9.852H44.9776L47.3776 16.428H47.2016L49.6016 9.852H51.0256L47.9696 17.5H46.6096L43.5536 9.852ZM57.6645 17.5L57.5045 15.82V12.54C57.5045 11.852 57.3578 11.3587 57.0645 11.06C56.7712 10.756 56.3312 10.604 55.7445 10.604C55.4138 10.604 55.1125 10.652 54.8405 10.748C54.5738 10.844 54.3605 10.9933 54.2005 11.196C54.0458 11.3933 53.9685 11.6493 53.9685 11.964H52.5765C52.5765 11.4093 52.7125 10.964 52.9845 10.628C53.2565 10.2867 53.6298 10.0413 54.1045 9.892C54.5845 9.73733 55.1312 9.66 55.7445 9.66C56.3312 9.66 56.8512 9.75867 57.3045 9.956C57.7578 10.1533 58.1125 10.468 58.3685 10.9C58.6245 11.3267 58.7525 11.884 58.7525 12.572V17.5H57.6645ZM55.0565 17.692C54.4272 17.692 53.9072 17.58 53.4965 17.356C53.0858 17.132 52.7792 16.8413 52.5765 16.484C52.3738 16.1267 52.2725 15.7507 52.2725 15.356C52.2725 14.8387 52.4005 14.4173 52.6565 14.092C52.9178 13.7667 53.2725 13.5293 53.7205 13.38C54.1685 13.2253 54.6725 13.148 55.2325 13.148C55.6325 13.148 56.0325 13.188 56.4325 13.268C56.8378 13.348 57.2325 13.4573 57.6165 13.596V14.38C57.2965 14.252 56.9338 14.1507 56.5285 14.076C56.1285 14.0013 55.7605 13.964 55.4245 13.964C54.9125 13.964 54.4805 14.0707 54.1285 14.284C53.7765 14.492 53.6005 14.8493 53.6005 15.356C53.6005 15.7293 53.7338 16.0493 54.0005 16.316C54.2725 16.5827 54.7045 16.716 55.2965 16.716C55.7125 16.716 56.0858 16.62 56.4165 16.428C56.7525 16.2307 57.0165 15.9853 57.2085 15.692C57.4058 15.3987 57.5045 15.1053 57.5045 14.812H57.8085C57.8085 15.324 57.6965 15.7987 57.4725 16.236C57.2538 16.6733 56.9392 17.0253 56.5285 17.292C56.1178 17.5587 55.6272 17.692 55.0565 17.692ZM64.957 17.692C64.285 17.692 63.669 17.572 63.109 17.332C62.549 17.0867 62.0983 16.7267 61.757 16.252C61.4157 15.7773 61.2397 15.1907 61.229 14.492H62.445C62.445 14.9613 62.5597 15.348 62.789 15.652C63.0183 15.9507 63.3223 16.1747 63.701 16.324C64.0797 16.468 64.493 16.54 64.941 16.54C65.4263 16.54 65.8477 16.4627 66.205 16.308C66.5623 16.1533 66.837 15.9507 67.029 15.7C67.2263 15.444 67.325 15.164 67.325 14.86C67.325 14.4333 67.1943 14.0893 66.933 13.828C66.6717 13.5613 66.285 13.3453 65.773 13.18L63.997 12.556C63.165 12.2573 62.5357 11.916 62.109 11.532C61.6823 11.148 61.469 10.6093 61.469 9.916C61.469 9.13733 61.7677 8.50267 62.365 8.012C62.9677 7.52133 63.821 7.276 64.925 7.276C65.949 7.276 66.749 7.51333 67.325 7.988C67.901 8.45733 68.2317 9.08933 68.317 9.884H67.085C67.005 9.42 66.7863 9.06 66.429 8.804C66.077 8.54267 65.5757 8.412 64.925 8.412C64.2637 8.412 63.749 8.55867 63.381 8.852C63.013 9.14533 62.829 9.516 62.829 9.964C62.829 10.332 62.9437 10.6253 63.173 10.844C63.4077 11.0573 63.773 11.2493 64.269 11.42L66.349 12.14C67.069 12.38 67.637 12.716 68.053 13.148C68.4743 13.58 68.685 14.14 68.685 14.828C68.685 15.3613 68.541 15.844 68.253 16.276C67.9703 16.708 67.5517 17.052 66.997 17.308C66.4423 17.564 65.7623 17.692 64.957 17.692ZM74.1009 17.692C73.4875 17.692 72.9142 17.5267 72.3809 17.196C71.8529 16.8653 71.4262 16.3987 71.1009 15.796C70.7755 15.1933 70.6129 14.4813 70.6129 13.66C70.6129 12.8173 70.7755 12.0973 71.1009 11.5C71.4262 10.9027 71.8529 10.4467 72.3809 10.132C72.9142 9.81733 73.4875 9.66 74.1009 9.66C74.5329 9.66 74.9195 9.72667 75.2609 9.86C75.6075 9.988 75.9089 10.1667 76.1649 10.396C76.4209 10.6253 76.6315 10.8867 76.7969 11.18C76.9675 11.468 77.0929 11.772 77.1729 12.092L75.8929 12.204C75.7595 11.7613 75.5355 11.412 75.2209 11.156C74.9115 10.8947 74.5329 10.764 74.0849 10.764C73.7062 10.764 73.3489 10.8733 73.0129 11.092C72.6822 11.3053 72.4129 11.628 72.2049 12.06C71.9969 12.4867 71.8929 13.02 71.8929 13.66C71.8929 14.252 71.9862 14.7667 72.1729 15.204C72.3649 15.636 72.6262 15.972 72.9569 16.212C73.2875 16.452 73.6635 16.572 74.0849 16.572C74.6769 16.572 75.1249 16.428 75.4289 16.14C75.7382 15.8467 75.8929 15.4413 75.8929 14.924H77.1729C77.1729 15.4573 77.0475 15.932 76.7969 16.348C76.5462 16.764 76.1889 17.092 75.7249 17.332C75.2662 17.572 74.7249 17.692 74.1009 17.692ZM79.6629 17.5V9.836H80.9109V17.5H79.6629ZM80.5269 14.044C80.5269 13.0733 80.6202 12.268 80.8069 11.628C80.9935 10.9827 81.2655 10.5027 81.6229 10.188C81.9855 9.868 82.4255 9.708 82.9429 9.708C83.1135 9.708 83.2682 9.72133 83.4069 9.748C83.5509 9.76933 83.6949 9.804 83.8389 9.852L83.7589 11.084C83.6095 11.036 83.4469 10.996 83.2709 10.964C83.0949 10.9267 82.9375 10.908 82.7989 10.908C82.3455 10.908 81.9802 11.0387 81.7029 11.3C81.4255 11.556 81.2229 11.9187 81.0949 12.388C80.9722 12.8573 80.9109 13.4093 80.9109 14.044H80.5269ZM86.1481 8.044C85.8921 8.044 85.6895 7.972 85.5401 7.828C85.3908 7.67867 85.3161 7.484 85.3161 7.244C85.3161 7.00933 85.3908 6.82267 85.5401 6.684C85.6895 6.54533 85.8921 6.476 86.1481 6.476C86.4041 6.476 86.6068 6.54533 86.7561 6.684C86.9055 6.82267 86.9801 7.00933 86.9801 7.244C86.9801 7.484 86.9055 7.67867 86.7561 7.828C86.6068 7.972 86.4041 8.044 86.1481 8.044ZM85.5241 17.5V9.836H86.7721V17.5H85.5241ZM93.6818 17.692C93.1218 17.692 92.6338 17.564 92.2178 17.308C91.8071 17.052 91.4898 16.6787 91.2658 16.188C91.0418 15.692 90.9298 15.0893 90.9298 14.38H91.4578C91.4578 14.8547 91.5564 15.2547 91.7538 15.58C91.9511 15.9053 92.2071 16.1533 92.5218 16.324C92.8418 16.4893 93.1804 16.572 93.5378 16.572C93.9218 16.572 94.2898 16.4627 94.6418 16.244C94.9938 16.02 95.2818 15.692 95.5058 15.26C95.7298 14.828 95.8418 14.2947 95.8418 13.66C95.8418 13.052 95.7378 12.532 95.5298 12.1C95.3271 11.668 95.0524 11.3373 94.7058 11.108C94.3591 10.8787 93.9751 10.764 93.5538 10.764C93.1911 10.764 92.8498 10.852 92.5298 11.028C92.2098 11.204 91.9511 11.4627 91.7538 11.804C91.5564 12.14 91.4578 12.556 91.4578 13.052H90.9298C90.9298 12.3107 91.0524 11.6893 91.2978 11.188C91.5431 10.6813 91.8764 10.3 92.2978 10.044C92.7191 9.788 93.1911 9.66 93.7138 9.66C94.3111 9.66 94.8684 9.82 95.3858 10.14C95.9031 10.46 96.3218 10.9187 96.6418 11.516C96.9618 12.1133 97.1218 12.828 97.1218 13.66C97.1218 14.5027 96.9591 15.2253 96.6337 15.828C96.3138 16.4307 95.8924 16.892 95.3698 17.212C94.8471 17.532 94.2844 17.692 93.6818 17.692ZM90.2098 21.26V9.852H91.2498L91.4578 11.644V21.26H90.2098ZM101.921 17.692C101.505 17.692 101.132 17.612 100.801 17.452C100.47 17.292 100.209 17.052 100.017 16.732C99.8251 16.412 99.7291 16.012 99.7291 15.532V7.724H100.961V15.5C100.961 16.2893 101.329 16.684 102.065 16.684C102.284 16.684 102.494 16.66 102.697 16.612C102.905 16.564 103.137 16.492 103.393 16.396L103.569 17.292C103.297 17.4093 103.025 17.5053 102.753 17.58C102.486 17.6547 102.209 17.692 101.921 17.692ZM98.4971 10.716V9.852H103.377V10.716H98.4971Z" fill="white"/>
</svg>
