<svg width="35" height="24" viewBox="0 0 35 24" fill="none" xmlns="http://www.w3.org/2000/svg">
<path d="M1.30638 23.269C0.985042 23.269 0.715708 23.1593 0.498375 22.94C0.280708 22.7206 0.171875 22.449 0.171875 22.125C0.171875 21.8006 0.280708 21.532 0.498375 21.319C0.715708 21.1063 0.985042 21 1.30638 21H33.0374C33.3587 21 33.628 21.1096 33.8454 21.329C34.063 21.5483 34.1719 21.8201 34.1719 22.1445C34.1719 22.4685 34.063 22.737 33.8454 22.95C33.628 23.1626 33.3587 23.269 33.0374 23.269H1.30638ZM1.30638 13.1345C0.985042 13.1345 0.715708 13.0248 0.498375 12.8055C0.280708 12.5861 0.171875 12.3143 0.171875 11.99C0.171875 11.666 0.280708 11.3975 0.498375 11.1845C0.715708 10.9718 0.985042 10.8655 1.30638 10.8655H33.0374C33.3587 10.8655 33.628 10.9751 33.8454 11.1945C34.063 11.4138 34.1719 11.6856 34.1719 12.01C34.1719 12.334 34.063 12.6025 33.8454 12.8155C33.628 13.0281 33.3587 13.1345 33.0374 13.1345H1.30638ZM1.30638 2.99996C0.985042 2.99996 0.715708 2.89029 0.498375 2.67096C0.280708 2.45162 0.171875 2.17979 0.171875 1.85546C0.171875 1.53146 0.280708 1.26296 0.498375 1.04996C0.715708 0.837291 0.985042 0.730957 1.30638 0.730957H33.0374C33.3587 0.730957 33.628 0.840625 33.8454 1.05996C34.063 1.27929 34.1719 1.55096 34.1719 1.87496C34.1719 2.19929 34.063 2.46796 33.8454 2.68096C33.628 2.89362 33.3587 2.99996 33.0374 2.99996H1.30638Z" fill="#3DCFB6"/>
</svg>
