<svg width="104" height="24" viewBox="0 0 104 24" fill="none" xmlns="http://www.w3.org/2000/svg">
<path d="M23.9782 1.90996C23.8034 0.993179 23.0933 0.251023 22.1866 0.0545703C22.1429 0.0436562 22.0992 0.0436562 22.0446 0.0327422C22.0337 0.0327422 22.0228 0.0109141 22.0118 0H1.97724C1.96632 0.0109141 1.95539 0.0327422 1.93355 0.0327422C1.02685 0.185539 0.262176 0.905866 0.0546199 1.82265C0.0436959 1.85539 0.021848 1.89904 0 1.9427V22.0136C0.010924 22.0355 0.032772 22.0464 0.032772 22.0682C0.251252 23.0723 0.862995 23.6944 1.85708 23.9454C1.88985 23.9563 1.9117 23.9782 1.93355 24H22.0446C22.0665 23.9891 22.0774 23.9673 22.0992 23.9563C23.0933 23.7271 23.7051 23.1269 23.9563 22.1337C23.9672 22.101 23.9563 22.0573 23.9672 22.0246C23.9672 22.0136 23.9891 22.0027 24 21.9918V1.97544C24 1.95362 23.9782 1.9427 23.9782 1.90996ZM13.9281 13.3042H13.8079C12.9012 13.3042 11.9836 13.3042 11.0769 13.3042C11.0332 13.3042 10.9895 13.3042 10.9458 13.3042C10.9458 13.3151 10.9349 13.3151 10.9349 13.3261C10.9349 13.3697 10.9349 13.4134 10.9349 13.457V21.8718H8.54256V13.3151H5.53846V11.4052H13.9172V13.3042H13.9281ZM21.99 19.0123C21.9681 19.3834 21.9135 19.7435 21.7606 20.0928C21.7169 20.2019 21.6841 20.3001 21.6295 20.4093C21.4329 20.824 21.1051 21.1187 20.7228 21.3588C20.2858 21.6317 19.8052 21.7844 19.3027 21.8827C18.7456 21.9918 18.1884 22.0246 17.6204 22.0027C17.3473 21.9918 17.0742 21.9918 16.8011 21.9591C16.1566 21.8827 15.523 21.7408 14.9331 21.457C14.9003 21.4461 14.8566 21.3915 14.8566 21.3588C14.8566 20.6494 14.8566 19.94 14.8566 19.2306C14.8566 19.2196 14.8566 19.2087 14.8566 19.1869C15.0314 19.307 15.2062 19.427 15.381 19.5252C15.807 19.7763 16.2767 19.9509 16.7574 20.06C17.1725 20.1583 17.5876 20.1692 18.0027 20.1473C18.3195 20.1364 18.6363 20.06 18.9203 19.9181C19.1716 19.7872 19.3792 19.6126 19.4338 19.3179C19.4884 19.0559 19.4665 18.794 19.3136 18.5648C19.0951 18.2374 18.7893 18.03 18.4506 17.8554C18.0683 17.6699 17.6859 17.5061 17.2927 17.3315C16.7137 17.0696 16.1457 16.7858 15.6759 16.3493C15.2936 15.9891 15.0096 15.5634 14.8785 15.0505C14.802 14.7449 14.7802 14.4393 14.7911 14.1337C14.802 13.3806 15.0751 12.7367 15.6104 12.2019C16.0473 11.7653 16.5826 11.5034 17.1725 11.3506C17.5767 11.2524 17.9809 11.176 18.396 11.1651C18.6909 11.1651 18.9859 11.1323 19.2699 11.1432C19.7178 11.1542 20.1548 11.176 20.5917 11.2851C20.8757 11.3615 21.1707 11.4379 21.4547 11.5034C21.5093 11.5143 21.5312 11.5471 21.5312 11.6126C21.5312 12.2892 21.5312 12.9768 21.5312 13.6535C21.5312 13.6753 21.5312 13.6971 21.5203 13.7299C21.4329 13.6753 21.3564 13.6317 21.2799 13.588C20.9304 13.3915 20.5589 13.2606 20.1766 13.1623C19.7506 13.0641 19.3245 12.9986 18.8876 13.0096C18.5926 13.0205 18.2868 13.0641 18.0137 13.1623C17.675 13.2824 17.4019 13.4789 17.2817 13.839C17.1834 14.1228 17.2599 14.3629 17.4347 14.5921C17.6532 14.8759 17.9481 15.0723 18.2649 15.2251C18.6909 15.4325 19.1279 15.6071 19.543 15.8035C20.0237 16.0327 20.5043 16.2619 20.9085 16.6003C21.2581 16.895 21.5749 17.2224 21.7497 17.6589C21.848 17.9209 21.9354 18.1937 21.9354 18.4884C21.9791 18.663 22.0009 18.8377 21.99 19.0123Z" fill="#3DCFB6"/>
<path d="M28.096 8.524V7.452H35.92V8.524H32.344L32.624 8.236V17.5H31.376V8.236L31.656 8.524H28.096ZM35.1333 9.852H36.5253L39.0213 16.412H38.7333L40.6693 9.852H41.9493L39.0693 19.036C38.8293 19.804 38.5093 20.396 38.1093 20.812C37.7093 21.228 37.1973 21.436 36.5733 21.436C36.2373 21.436 35.9173 21.388 35.6133 21.292C35.3146 21.196 35.0053 21.0573 34.6852 20.876V19.724C34.9679 19.948 35.2399 20.108 35.5013 20.204C35.7679 20.3 36.0453 20.348 36.3333 20.348C36.6533 20.348 36.9199 20.2467 37.1332 20.044C37.3519 19.8413 37.5333 19.58 37.6773 19.26C37.8213 18.9453 37.9439 18.6147 38.0453 18.268L38.2693 17.5L35.1333 9.852ZM47.3224 17.692C46.7624 17.692 46.2744 17.564 45.8584 17.308C45.4477 17.052 45.1304 16.6787 44.9064 16.188C44.6824 15.692 44.5704 15.0893 44.5704 14.38H45.0984C45.0984 14.8547 45.197 15.2547 45.3944 15.58C45.5917 15.9053 45.8477 16.1533 46.1624 16.324C46.4824 16.4893 46.821 16.572 47.1784 16.572C47.5624 16.572 47.9304 16.4627 48.2824 16.244C48.6344 16.02 48.9224 15.692 49.1464 15.26C49.3704 14.828 49.4824 14.2947 49.4824 13.66C49.4824 13.052 49.3784 12.532 49.1704 12.1C48.9677 11.668 48.693 11.3373 48.3464 11.108C47.9997 10.8787 47.6157 10.764 47.1944 10.764C46.8317 10.764 46.4904 10.852 46.1704 11.028C45.8504 11.204 45.5917 11.4627 45.3944 11.804C45.197 12.14 45.0984 12.556 45.0984 13.052H44.5704C44.5704 12.3107 44.693 11.6893 44.9384 11.188C45.1837 10.6813 45.517 10.3 45.9384 10.044C46.3597 9.788 46.8317 9.66 47.3544 9.66C47.9517 9.66 48.509 9.82 49.0264 10.14C49.5437 10.46 49.9624 10.9187 50.2824 11.516C50.6024 12.1133 50.7624 12.828 50.7624 13.66C50.7624 14.5027 50.5997 15.2253 50.2744 15.828C49.9544 16.4307 49.533 16.892 49.0104 17.212C48.4877 17.532 47.925 17.692 47.3224 17.692ZM43.8504 21.26V9.852H44.8904L45.0984 11.644V21.26H43.8504ZM55.8658 17.692C55.2044 17.692 54.6124 17.524 54.0898 17.188C53.5724 16.8467 53.1618 16.3747 52.8578 15.772C52.5591 15.1693 52.4098 14.476 52.4098 13.692C52.4098 12.8547 52.5591 12.1347 52.8578 11.532C53.1564 10.9293 53.5644 10.468 54.0818 10.148C54.6044 9.82267 55.1991 9.66 55.8658 9.66C56.4471 9.66 56.9431 9.77733 57.3538 10.012C57.7644 10.2467 58.0951 10.564 58.3458 10.964C58.5964 11.364 58.7698 11.8173 58.8658 12.324C58.9671 12.8253 58.9964 13.3453 58.9538 13.884H53.4178V13.116H58.1298L57.7618 13.356C57.7778 13.0413 57.7591 12.7267 57.7058 12.412C57.6578 12.0973 57.5644 11.8093 57.4258 11.548C57.2871 11.2813 57.0924 11.068 56.8418 10.908C56.5911 10.748 56.2711 10.668 55.8818 10.668C55.3911 10.668 54.9804 10.7933 54.6498 11.044C54.3191 11.2947 54.0711 11.6253 53.9058 12.036C53.7404 12.4413 53.6578 12.8813 53.6578 13.356V13.868C53.6578 14.4013 53.7378 14.8787 53.8978 15.3C54.0631 15.7213 54.3084 16.0547 54.6338 16.3C54.9591 16.5453 55.3698 16.668 55.8658 16.668C56.3618 16.668 56.7698 16.548 57.0898 16.308C57.4098 16.068 57.6044 15.7133 57.6738 15.244H58.9698C58.8898 15.7507 58.7084 16.188 58.4258 16.556C58.1431 16.9187 57.7831 17.1987 57.3458 17.396C56.9084 17.5933 56.4151 17.692 55.8658 17.692ZM64.6445 17.692C63.9725 17.692 63.3565 17.572 62.7965 17.332C62.2365 17.0867 61.7858 16.7267 61.4445 16.252C61.1032 15.7773 60.9272 15.1907 60.9165 14.492H62.1325C62.1325 14.9613 62.2472 15.348 62.4765 15.652C62.7058 15.9507 63.0098 16.1747 63.3885 16.324C63.7672 16.468 64.1805 16.54 64.6285 16.54C65.1138 16.54 65.5352 16.4627 65.8925 16.308C66.2498 16.1533 66.5245 15.9507 66.7165 15.7C66.9138 15.444 67.0125 15.164 67.0125 14.86C67.0125 14.4333 66.8818 14.0893 66.6205 13.828C66.3592 13.5613 65.9725 13.3453 65.4605 13.18L63.6845 12.556C62.8525 12.2573 62.2232 11.916 61.7965 11.532C61.3698 11.148 61.1565 10.6093 61.1565 9.916C61.1565 9.13733 61.4552 8.50267 62.0525 8.012C62.6552 7.52133 63.5085 7.276 64.6125 7.276C65.6365 7.276 66.4365 7.51333 67.0125 7.988C67.5885 8.45733 67.9192 9.08933 68.0045 9.884H66.7725C66.6925 9.42 66.4738 9.06 66.1165 8.804C65.7645 8.54267 65.2632 8.412 64.6125 8.412C63.9512 8.412 63.4365 8.55867 63.0685 8.852C62.7005 9.14533 62.5165 9.516 62.5165 9.964C62.5165 10.332 62.6312 10.6253 62.8605 10.844C63.0952 11.0573 63.4605 11.2493 63.9565 11.42L66.0365 12.14C66.7565 12.38 67.3245 12.716 67.7405 13.148C68.1618 13.58 68.3725 14.14 68.3725 14.828C68.3725 15.3613 68.2285 15.844 67.9405 16.276C67.6578 16.708 67.2392 17.052 66.6845 17.308C66.1298 17.564 65.4498 17.692 64.6445 17.692ZM73.7884 17.692C73.175 17.692 72.6017 17.5267 72.0684 17.196C71.5404 16.8653 71.1137 16.3987 70.7884 15.796C70.463 15.1933 70.3004 14.4813 70.3004 13.66C70.3004 12.8173 70.463 12.0973 70.7884 11.5C71.1137 10.9027 71.5404 10.4467 72.0684 10.132C72.6017 9.81733 73.175 9.66 73.7884 9.66C74.2204 9.66 74.607 9.72667 74.9484 9.86C75.295 9.988 75.5964 10.1667 75.8524 10.396C76.1084 10.6253 76.319 10.8867 76.4844 11.18C76.655 11.468 76.7804 11.772 76.8604 12.092L75.5804 12.204C75.447 11.7613 75.223 11.412 74.9084 11.156C74.599 10.8947 74.2204 10.764 73.7724 10.764C73.3937 10.764 73.0364 10.8733 72.7004 11.092C72.3697 11.3053 72.1004 11.628 71.8924 12.06C71.6844 12.4867 71.5804 13.02 71.5804 13.66C71.5804 14.252 71.6737 14.7667 71.8604 15.204C72.0524 15.636 72.3137 15.972 72.6444 16.212C72.975 16.452 73.351 16.572 73.7724 16.572C74.3644 16.572 74.8124 16.428 75.1164 16.14C75.4257 15.8467 75.5804 15.4413 75.5804 14.924H76.8604C76.8604 15.4573 76.735 15.932 76.4844 16.348C76.2337 16.764 75.8764 17.092 75.4124 17.332C74.9537 17.572 74.4124 17.692 73.7884 17.692ZM79.3504 17.5V9.836H80.5984V17.5H79.3504ZM80.2144 14.044C80.2144 13.0733 80.3077 12.268 80.4944 11.628C80.681 10.9827 80.953 10.5027 81.3104 10.188C81.673 9.868 82.113 9.708 82.6304 9.708C82.801 9.708 82.9557 9.72133 83.0944 9.748C83.2384 9.76933 83.3824 9.804 83.5264 9.852L83.4464 11.084C83.297 11.036 83.1344 10.996 82.9584 10.964C82.7824 10.9267 82.625 10.908 82.4864 10.908C82.033 10.908 81.6677 11.0387 81.3904 11.3C81.113 11.556 80.9104 11.9187 80.7824 12.388C80.6597 12.8573 80.5984 13.4093 80.5984 14.044H80.2144ZM85.8356 8.044C85.5796 8.044 85.377 7.972 85.2276 7.828C85.0783 7.67867 85.0036 7.484 85.0036 7.244C85.0036 7.00933 85.0783 6.82267 85.2276 6.684C85.377 6.54533 85.5796 6.476 85.8356 6.476C86.0916 6.476 86.2943 6.54533 86.4436 6.684C86.593 6.82267 86.6676 7.00933 86.6676 7.244C86.6676 7.484 86.593 7.67867 86.4436 7.828C86.2943 7.972 86.0916 8.044 85.8356 8.044ZM85.2116 17.5V9.836H86.4596V17.5H85.2116ZM93.3693 17.692C92.8093 17.692 92.3213 17.564 91.9053 17.308C91.4946 17.052 91.1773 16.6787 90.9533 16.188C90.7293 15.692 90.6173 15.0893 90.6173 14.38H91.1453C91.1453 14.8547 91.2439 15.2547 91.4413 15.58C91.6386 15.9053 91.8946 16.1533 92.2093 16.324C92.5293 16.4893 92.8679 16.572 93.2253 16.572C93.6093 16.572 93.9773 16.4627 94.3293 16.244C94.6813 16.02 94.9693 15.692 95.1933 15.26C95.4173 14.828 95.5293 14.2947 95.5293 13.66C95.5293 13.052 95.4253 12.532 95.2173 12.1C95.0146 11.668 94.7399 11.3373 94.3933 11.108C94.0466 10.8787 93.6626 10.764 93.2413 10.764C92.8786 10.764 92.5373 10.852 92.2173 11.028C91.8973 11.204 91.6386 11.4627 91.4413 11.804C91.2439 12.14 91.1453 12.556 91.1453 13.052H90.6173C90.6173 12.3107 90.7399 11.6893 90.9853 11.188C91.2306 10.6813 91.5639 10.3 91.9853 10.044C92.4066 9.788 92.8786 9.66 93.4013 9.66C93.9986 9.66 94.5559 9.82 95.0733 10.14C95.5906 10.46 96.0093 10.9187 96.3293 11.516C96.6493 12.1133 96.8093 12.828 96.8093 13.66C96.8093 14.5027 96.6466 15.2253 96.3212 15.828C96.0013 16.4307 95.5799 16.892 95.0573 17.212C94.5346 17.532 93.9719 17.692 93.3693 17.692ZM89.8973 21.26V9.852H90.9373L91.1453 11.644V21.26H89.8973ZM101.609 17.692C101.193 17.692 100.819 17.612 100.489 17.452C100.158 17.292 99.8966 17.052 99.7046 16.732C99.5126 16.412 99.4166 16.012 99.4166 15.532V7.724H100.649V15.5C100.649 16.2893 101.017 16.684 101.753 16.684C101.971 16.684 102.182 16.66 102.385 16.612C102.593 16.564 102.825 16.492 103.081 16.396L103.257 17.292C102.985 17.4093 102.713 17.5053 102.441 17.58C102.174 17.6547 101.897 17.692 101.609 17.692ZM98.1846 10.716V9.852H103.065V10.716H98.1846Z" fill="white"/>
</svg>
